<svg class="animated" id="freepik_stories-active-elderly-people" xmlns="http://www.w3.org/2000/svg" viewBox="0 0 500 500" version="1.1" xmlns:xlink="http://www.w3.org/1999/xlink" xmlns:svgjs="http://svgjs.com/svgjs"><style>svg#freepik_stories-active-elderly-people:not(.animated) .animable {opacity: 0;}svg#freepik_stories-active-elderly-people.animated #freepik--background-complete--inject-2 {animation: 1s 1 forwards ease-out slideUp,1.5s Infinite  linear floating;animation-delay: 0s,1s;}            @keyframes slideUp {                0% {                    opacity: 0;                    transform: translateY(30px);                }                100% {                    opacity: 1;                    transform: inherit;                }            }                    @keyframes floating {                0% {                    opacity: 1;                    transform: translateY(0px);                }                50% {                    transform: translateY(-10px);                }                100% {                    opacity: 1;                    transform: translateY(0px);                }            }        </style><g id="freepik--background-complete--inject-2" style="transform-origin: 250px 228.23px 0px;" class="animable animator-active"><rect y="382.4" width="500" height="0.25" style="fill: rgb(235, 235, 235); transform-origin: 250px 382.525px 0px;" id="elkcu533pjkd8" class="animable"></rect><rect x="416.78" y="398.49" width="33.12" height="0.25" style="fill: rgb(235, 235, 235); transform-origin: 433.34px 398.615px 0px;" id="el16u32bqt5os" class="animable"></rect><rect x="322.53" y="401.21" width="8.69" height="0.25" style="fill: rgb(235, 235, 235); transform-origin: 326.875px 401.335px 0px;" id="el2x6dkomeqb4" class="animable"></rect><rect x="396.59" y="389.21" width="19.19" height="0.25" style="fill: rgb(235, 235, 235); transform-origin: 406.185px 389.335px 0px;" id="elsstz2rw35nm" class="animable"></rect><rect x="52.46" y="390.89" width="43.19" height="0.25" style="fill: rgb(235, 235, 235); transform-origin: 74.055px 391.015px 0px;" id="elsm7oc1hpita" class="animable"></rect><rect x="104.56" y="390.89" width="6.33" height="0.25" style="fill: rgb(235, 235, 235); transform-origin: 107.725px 391.015px 0px;" id="elgpm9xv2etg4" class="animable"></rect><rect x="131.47" y="395.11" width="93.68" height="0.25" style="fill: rgb(235, 235, 235); transform-origin: 178.31px 395.235px 0px;" id="elibypekqs2fa" class="animable"></rect><path d="M237,337.8H43.91a5.71,5.71,0,0,1-5.7-5.71V60.66A5.71,5.71,0,0,1,43.91,55H237a5.71,5.71,0,0,1,5.71,5.71V332.09A5.71,5.71,0,0,1,237,337.8ZM43.91,55.2a5.46,5.46,0,0,0-5.45,5.46V332.09a5.46,5.46,0,0,0,5.45,5.46H237a5.47,5.47,0,0,0,5.46-5.46V60.66A5.47,5.47,0,0,0,237,55.2Z" style="fill: rgb(235, 235, 235); transform-origin: 140.46px 196.4px 0px;" id="eld55rygi7rgj" class="animable"></path><path d="M453.31,337.8H260.21a5.72,5.72,0,0,1-5.71-5.71V60.66A5.72,5.72,0,0,1,260.21,55h193.1A5.71,5.71,0,0,1,459,60.66V332.09A5.71,5.71,0,0,1,453.31,337.8ZM260.21,55.2a5.47,5.47,0,0,0-5.46,5.46V332.09a5.47,5.47,0,0,0,5.46,5.46h193.1a5.47,5.47,0,0,0,5.46-5.46V60.66a5.47,5.47,0,0,0-5.46-5.46Z" style="fill: rgb(235, 235, 235); transform-origin: 356.75px 196.4px 0px;" id="elfjp9blube6b" class="animable"></path><rect x="373.68" y="230.34" width="19.37" height="107.46" style="fill: rgb(245, 245, 245); transform-origin: 383.365px 284.07px 0px;" id="eloxsmx9llw7" class="animable"></rect><rect x="345.3" y="162.1" width="28.25" height="175.7" style="fill: rgb(250, 250, 250); transform-origin: 359.425px 249.95px 0px;" id="elbfx4d3qqkzi" class="animable"></rect><rect x="407.54" y="200.71" width="22.04" height="137.09" style="fill: rgb(250, 250, 250); transform-origin: 418.56px 269.255px 0px;" id="eloivh77xxqqp" class="animable"></rect><rect x="149.96" y="115.47" width="18.09" height="222.33" style="fill: rgb(250, 250, 250); transform-origin: 159.005px 226.635px 0px;" id="ellwv6g6co6d" class="animable"></rect><rect x="221.88" y="134.21" width="32.73" height="203.59" style="fill: rgb(235, 235, 235); transform-origin: 238.245px 236.005px 0px;" id="elbnsc9cnxkdu" class="animable"></rect><polygon points="283.52 320.36 259.49 320.36 259.49 188.56 271.5 172.57 283.52 188.56 283.52 320.36" style="fill: rgb(250, 250, 250); transform-origin: 271.505px 246.465px 0px;" id="elx88bl4zomfc" class="animable"></polygon><polygon points="135.68 337.8 102.94 337.8 102.94 158.28 119.31 142.63 135.68 158.28 135.68 337.8" style="fill: rgb(245, 245, 245); transform-origin: 119.31px 240.215px 0px;" id="elbxi8litn2yi" class="animable"></polygon><polygon points="345.44 320.36 318.06 320.36 318.06 170.19 345.17 131.14 345.44 320.36" style="fill: rgb(250, 250, 250); transform-origin: 331.75px 225.75px 0px;" id="eljdxtkezg0rn" class="animable"></polygon><rect x="182.29" y="91.56" width="39.59" height="246.24" style="fill: rgb(240, 240, 240); transform-origin: 202.085px 214.68px 0px;" id="el94aqk07q8u4" class="animable"></rect><rect x="322.18" y="194.82" width="22.99" height="142.98" style="fill: rgb(250, 250, 250); transform-origin: 333.675px 266.31px 0px;" id="elvco6wx4k4zh" class="animable"></rect><rect x="393.06" y="294.17" width="33.78" height="43.63" style="fill: rgb(235, 235, 235); transform-origin: 409.95px 315.985px 0px;" id="el0gb5e91152vd" class="animable"></rect><path d="M314.19,335.93H288.44V228.39c0-9.27,2.44-18.13,6.74-24.49l19-14.9Z" style="fill: rgb(245, 245, 245); transform-origin: 301.315px 262.465px 0px;" id="elnv2ap4cn2sr" class="animable"></path><polygon points="56.24 337.8 81.99 337.8 81.99 208.95 56.24 190.75 56.24 337.8" style="fill: rgb(240, 240, 240); transform-origin: 69.115px 264.275px 0px;" id="elfagiq6k0czv" class="animable"></polygon><rect x="254.61" y="294.17" width="33.78" height="43.63" style="fill: rgb(235, 235, 235); transform-origin: 271.5px 315.985px 0px;" id="elnz4g2ckoimj" class="animable"></rect><polygon points="322.18 337.8 288.4 337.8 288.4 269.53 305.29 259.09 322.18 269.53 322.18 337.8" style="fill: rgb(230, 230, 230); transform-origin: 305.29px 298.445px 0px;" id="els5ueng4w0wg" class="animable"></polygon><polygon points="182.29 337.8 135.37 337.8 135.37 246.54 159.47 232.58 182.29 246.54 182.29 337.8" style="fill: rgb(235, 235, 235); transform-origin: 158.83px 285.19px 0px;" id="el1niblu1jeio" class="animable"></polygon><rect x="426.71" y="257.35" width="17.18" height="80.45" style="fill: rgb(235, 235, 235); transform-origin: 435.3px 297.575px 0px;" id="elqthdictwnkq" class="animable"></rect><rect x="75.81" y="257.35" width="27.14" height="80.45" style="fill: rgb(235, 235, 235); transform-origin: 89.38px 297.575px 0px;" id="el3n8tfanvwwl" class="animable"></rect><path d="M354,258.07c6.25-6.28,14.6-7.13,18.65-1.89s2.26,14.58-4,20.86-14.61,7.12-18.65,1.88S347.77,264.35,354,258.07Z" style="fill: rgb(230, 230, 230); transform-origin: 361.331px 267.552px 0px;" id="el1mivx48vt2y" class="animable"></path><g id="el3nicozzrmie"><ellipse cx="342.69" cy="247.45" rx="40.56" ry="29.82" style="fill: rgb(235, 235, 235); transform-origin: 342.69px 247.45px 0px; transform: rotate(-48.15deg);" class="animable"></ellipse></g><path d="M395.58,225.89c11.53-10.89,26.93-12.36,34.39-3.27s4.17,25.3-7.36,36.19-26.92,12.37-34.39,3.28S384.06,236.79,395.58,225.89Z" style="fill: rgb(230, 230, 230); transform-origin: 409.094px 242.353px 0px;" id="elxumwni2w2s" class="animable"></path><path d="M408.17,247.21c11.53-10.9,26.93-12.36,34.39-3.27s4.17,25.29-7.36,36.19-26.92,12.36-34.39,3.27S396.64,258.11,408.17,247.21Z" style="fill: rgb(235, 235, 235); transform-origin: 421.683px 263.67px 0px;" id="elepqhtzov7nc" class="animable"></path><path d="M370.27,213.8c15.9-15,37.14-17.05,47.43-4.52s5.75,34.88-10.15,49.91-37.14,17.06-47.43,4.52S354.37,228.83,370.27,213.8Z" style="fill: rgb(240, 240, 240); transform-origin: 388.91px 236.502px 0px;" id="elntfbog0qdt" class="animable"></path><path d="M339.65,238.83c8.65-8.69,20.2-9.86,25.8-2.61s3.13,20.16-5.52,28.85-20.2,9.86-25.8,2.61S331,247.51,339.65,238.83Z" style="fill: rgb(240, 240, 240); transform-origin: 349.79px 251.95px 0px;" id="el1wo4dmwj0wa" class="animable"></path><g id="el6knqzi5ao9u"><ellipse cx="418.37" cy="277.23" rx="16.21" ry="11.77" style="fill: rgb(240, 240, 240); transform-origin: 418.37px 277.23px 0px; transform: rotate(-53.76deg);" class="animable"></ellipse></g><path d="M410.39,291.3l-11,9.17c.87,12.93,1.59,42.71,1.59,42.71L404.92,364l-34.42.29s1.57-17.58,1.57-18.54,6.65-34.64,6.65-34.64l2.34-18.87-17.74-4.86L360.08,279l-13-6.63-6.38-8.8,2.47-.53,7,8.12,8.22,1.6-3.52-7.48h3.91l9.78,17.34,12.6,2.32-1.65-24.35c12.13,3.42,13.3-2.81,13.3-2.81s4.16,32.76,5.62,36.5l6.5-2.95,7-10h3.13Z" style="fill: rgb(224, 224, 224); transform-origin: 377.88px 311.035px 0px;" id="el5l9yeiykbt8" class="animable"></path><path d="M89.64,272.47c5.39-5.42,12.58-6.15,16.07-1.63s2,12.57-3.44,18S89.69,295,86.2,290.44,84.25,277.88,89.64,272.47Z" style="fill: rgb(230, 230, 230); transform-origin: 95.9613px 280.656px 0px;" id="el76cbmqygrf4" class="animable"></path><g id="elyq4zxjlnl2"><ellipse cx="79.87" cy="263.31" rx="34.96" ry="25.71" style="fill: rgb(235, 235, 235); transform-origin: 79.87px 263.31px 0px; transform: rotate(-48.15deg);" class="animable"></ellipse></g><g id="elsza85560lip"><ellipse cx="137.12" cy="258.92" rx="24.83" ry="18.26" style="fill: rgb(230, 230, 230); transform-origin: 137.12px 258.92px 0px; transform: rotate(-48.15deg);" class="animable"></ellipse></g><g id="elmn85u7gmkwp"><ellipse cx="147.97" cy="277.3" rx="24.83" ry="18.26" style="fill: rgb(235, 235, 235); transform-origin: 147.97px 277.3px 0px; transform: rotate(-48.15deg);" class="animable"></ellipse></g><g id="eld3onfyv93n8"><ellipse cx="119.71" cy="253.87" rx="34.25" ry="25.18" style="fill: rgb(240, 240, 240); transform-origin: 119.71px 253.87px 0px; transform: rotate(-48.15deg);" class="animable"></ellipse></g><path d="M77.25,255.88c7.46-7.49,17.41-8.5,22.24-2.25s2.7,17.38-4.76,24.87-17.41,8.5-22.24,2.25S69.79,263.37,77.25,255.88Z" style="fill: rgb(240, 240, 240); transform-origin: 85.99px 267.19px 0px;" id="elpo9gjbbu2v" class="animable"></path><path d="M138.79,280.81c5.39-5.41,12.59-6.14,16.08-1.63s1.95,12.57-3.44,18-12.59,6.14-16.08,1.63S133.4,286.22,138.79,280.81Z" style="fill: rgb(240, 240, 240); transform-origin: 145.11px 288.998px 0px;" id="elfxthtkxows8" class="animable"></path><path d="M138.23,301.12l-9.46,7.9c.76,11.15,1.38,36.82,1.38,36.82l3.36,18-29.66.24s1.35-15.15,1.35-16,5.73-29.86,5.73-29.86l2-16.26-15.29-4.19-2.8-7.25-11.24-5.72-5.5-7.58,2.13-.47,6.07,7,7.08,1.38-3-6.45h3.38l8.42,14.94,10.86,2-1.42-21c10.46,2.95,11.47-2.43,11.47-2.43s3.58,28.25,4.85,31.46l5.59-2.53,6.08-8.61h2.69Z" style="fill: rgb(224, 224, 224); transform-origin: 110.2px 318.135px 0px;" id="el6i6c3uru6gh" class="animable"></path><path d="M442.87,368.59v13.7h-386v-13.7a4.08,4.08,0,0,1,4-4.3H438.83A4.08,4.08,0,0,1,442.87,368.59Z" style="fill: rgb(235, 235, 235); transform-origin: 249.87px 373.29px 0px;" id="elyorcsuf5u5g" class="animable"></path><rect x="78.87" y="364.29" width="24" height="18" style="fill: rgb(245, 245, 245); transform-origin: 90.87px 373.29px 0px;" id="elk4lqq4kx8u7" class="animable"></rect><rect x="124.87" y="364.29" width="23" height="18" style="fill: rgb(245, 245, 245); transform-origin: 136.37px 373.29px 0px;" id="elyevvehezdpe" class="animable"></rect><rect x="169.87" y="364.29" width="24" height="18" style="fill: rgb(245, 245, 245); transform-origin: 181.87px 373.29px 0px;" id="eln8x4qiis12n" class="animable"></rect><rect x="215.87" y="364.29" width="23" height="18" style="fill: rgb(245, 245, 245); transform-origin: 227.37px 373.29px 0px;" id="elzv7ivw09j" class="animable"></rect><rect x="260.87" y="364.29" width="23" height="18" style="fill: rgb(245, 245, 245); transform-origin: 272.37px 373.29px 0px;" id="elfvetff7dq9f" class="animable"></rect><rect x="305.87" y="364.29" width="24" height="18" style="fill: rgb(245, 245, 245); transform-origin: 317.87px 373.29px 0px;" id="el4w69wprpa6p" class="animable"></rect><rect x="351.87" y="364.29" width="23" height="18" style="fill: rgb(245, 245, 245); transform-origin: 363.37px 373.29px 0px;" id="eljhemf3snopp" class="animable"></rect><rect x="396.87" y="364.29" width="24" height="18" style="fill: rgb(245, 245, 245); transform-origin: 408.87px 373.29px 0px;" id="eleasv3muklbp" class="animable"></rect><path d="M350.06,100.52a8.79,8.79,0,0,0-11.35-8.44A18.67,18.67,0,0,0,316.79,71a16.32,16.32,0,0,0-30.26,8.25l-.27,0a15,15,0,0,0,0,30.09H341.5v0A8.81,8.81,0,0,0,350.06,100.52Z" style="fill: rgb(250, 250, 250); transform-origin: 310.638px 86.2511px 0px;" id="elt3au849gjg9" class="animable"></path><path d="M410.7,148.1a3.43,3.43,0,0,0-3.43-3.42,3.19,3.19,0,0,0-1,.15,7.45,7.45,0,0,0,.08-1.06,7.25,7.25,0,0,0-7.25-7.24,7.42,7.42,0,0,0-1.34.12,6.33,6.33,0,0,0-11.74,3.2h-.11a5.84,5.84,0,0,0,0,11.68h21.44A3.42,3.42,0,0,0,410.7,148.1Z" style="fill: rgb(250, 250, 250); transform-origin: 395.385px 142.568px 0px;" id="elexx3207z60e" class="animable"></path><path d="M131.27,118.44a5.63,5.63,0,0,0-5.63-5.63,5.7,5.7,0,0,0-1.61.24,12.26,12.26,0,0,0,.12-1.73A11.92,11.92,0,0,0,112.23,99.4a11.47,11.47,0,0,0-2.2.21,10.42,10.42,0,0,0-19.32,5.26h-.17a9.6,9.6,0,0,0,0,19.2H125.8A5.61,5.61,0,0,0,131.27,118.44Z" style="fill: rgb(250, 250, 250); transform-origin: 106.108px 109.338px 0px;" id="eltnlunr1qtc" class="animable"></path></g><g id="freepik--Shadow--inject-2" style="transform-origin: 250px 416.24px 0px;" class="animable"><ellipse id="freepik--path--inject-2" cx="250" cy="416.24" rx="193.89" ry="11.32" style="fill: rgb(245, 245, 245); transform-origin: 250px 416.24px 0px;" class="animable"></ellipse></g><g id="freepik--character-2--inject-2" style="transform-origin: 337.506px 273.411px 0px;" class="animable"><g id="freepik--group--inject-2" style="transform-origin: 337.506px 273.411px 0px;" class="animable"><polygon points="391.75 390.78 381.03 391.35 385.05 409.26 393.39 408.91 391.75 390.78" style="fill: rgb(228, 137, 123); transform-origin: 387.21px 400.02px 0px;" id="elcxt1mh4xq3" class="animable"></polygon><g id="elpmhd8uzzud7"><polygon points="391.75 390.78 381.03 391.35 383.36 401.7 392.71 401.27 391.75 390.78" style="opacity: 0.2; isolation: isolate; transform-origin: 386.87px 396.24px 0px;" class="animable"></polygon></g><polygon points="316.17 410.12 324.27 409.8 328.42 391.02 316.85 391.47 316.17 410.12" style="fill: rgb(228, 137, 123); transform-origin: 322.295px 400.57px 0px;" id="el25afk0dbahr" class="animable"></polygon><g id="el85qt63vd55"><polygon points="316.85 391.48 328.42 391.04 325.91 402.36 316.43 402.72 316.85 391.48" style="opacity: 0.2; isolation: isolate; transform-origin: 322.425px 396.88px 0px;" class="animable"></polygon></g><path d="M394.55,408.67H384.7a.72.72,0,0,0-.69.56l-1.6,7.22a1.2,1.2,0,0,0,.92,1.42,1.23,1.23,0,0,0,.27,0c3.18-.05,5.5-.24,9.51-.24,2.46,0,9.9.25,13.3.25s3.85-3.36,2.46-3.67c-6.25-1.36-11-3.25-13-5A2,2,0,0,0,394.55,408.67Z" style="fill: rgb(38, 50, 56); transform-origin: 395.995px 413.275px 0px;" id="elrz3kezipak" class="animable"></path><path d="M395.11,409.8a.2.2,0,0,1-.15-.17.18.18,0,0,1,.09-.18c.29-.19,2.91-1.8,3.81-1.33a.55.55,0,0,1,.33.53,1.13,1.13,0,0,1-.4,1,2.48,2.48,0,0,1-1.56.42A10,10,0,0,1,395.11,409.8Zm.55-.27a3.91,3.91,0,0,0,2.89-.15.78.78,0,0,0,.26-.69c0-.15-.07-.22-.12-.22a.57.57,0,0,0-.25-.06A8,8,0,0,0,395.66,409.53Z" style="fill: rgb(64, 123, 255); transform-origin: 397.078px 409.055px 0px;" id="eliul8xfw9vqj" class="animable"></path><path d="M395.05,409.84a.24.24,0,0,1-.09-.18c0-.11.21-2.44,1.15-3.21a1,1,0,0,1,.81-.24.63.63,0,0,1,.62.5c.17.86-1.45,2.64-2.29,3.1h-.09A.2.2,0,0,1,395.05,409.84Zm1.3-3.16a4.53,4.53,0,0,0-1,2.54c.83-.63,1.86-2,1.76-2.51,0,0,0-.19-.28-.19h-.09A.7.7,0,0,0,396.35,406.68Z" style="fill: rgb(64, 123, 255); transform-origin: 396.256px 408.02px 0px;" id="elbl7nzfd8mlc" class="animable"></path><path d="M326.32,408.41h-9.85a.73.73,0,0,0-.69.56l-1.6,7.22a1.21,1.21,0,0,0,.93,1.42,1.09,1.09,0,0,0,.26,0c3.19-.06,5.51-.25,9.51-.25,2.46,0,9.9.26,13.3.26s3.85-3.37,2.46-3.68c-6.25-1.36-11-3.24-13-5A2,2,0,0,0,326.32,408.41Z" style="fill: rgb(38, 50, 56); transform-origin: 327.766px 413.015px 0px;" id="elawacl6rexcu" class="animable"></path><path d="M326.88,409.54a.18.18,0,0,1-.14-.17.16.16,0,0,1,.09-.18c.29-.19,2.91-1.8,3.8-1.33a.57.57,0,0,1,.33.53,1.13,1.13,0,0,1-.4,1,2.45,2.45,0,0,1-1.56.41A9.51,9.51,0,0,1,326.88,409.54Zm.56-.27a3.93,3.93,0,0,0,2.88-.14.8.8,0,0,0,.26-.69c0-.16-.07-.23-.12-.23a.43.43,0,0,0-.25,0A7.87,7.87,0,0,0,327.44,409.27Z" style="fill: rgb(64, 123, 255); transform-origin: 328.852px 408.791px 0px;" id="el6iap7d5geke" class="animable"></path><path d="M326.83,409.58a.18.18,0,0,1-.09-.18c0-.11.2-2.44,1.14-3.2a1,1,0,0,1,.81-.25.62.62,0,0,1,.62.5c.17.86-1.45,2.65-2.29,3.1h-.09A.19.19,0,0,1,326.83,409.58Zm1.3-3.16a4.54,4.54,0,0,0-1,2.54c.83-.63,1.87-2,1.76-2.51,0-.05,0-.19-.28-.19h-.09A.67.67,0,0,0,328.13,406.42Z" style="fill: rgb(64, 123, 255); transform-origin: 328.03px 407.76px 0px;" id="elintj8i0k2j" class="animable"></path><path d="M393.74,384.79a4.79,4.79,0,0,1-4.12,4.83l-6.83,1a4.78,4.78,0,0,1-5.38-3.93C375.24,374,368.67,337.2,360,304.51c-4.43-16.69-9.4-32.3-14.61-43.11a1019.48,1019.48,0,0,1-13.94,127.43,4.78,4.78,0,0,1-4.71,3.95h-6.89a4.77,4.77,0,0,1-4.78-4.87c.43-21,1.83-104.74-2-152.4l44.68-25.71S390.63,253,393.74,384.79Z" style="fill: rgb(38, 50, 56); transform-origin: 353.405px 301.29px 0px;" id="elpmzr5nqp95" class="animable"></path><polygon points="380.47 390.32 381.13 393.75 392.6 391.97 392.17 388.41 380.47 390.32" style="fill: rgb(64, 123, 255); transform-origin: 386.535px 391.08px 0px;" id="el9v073yde9b" class="animable"></polygon><path d="M336.56,240.85s2.23-8.54,1.44-14.08c0,0-3.67,10.76-6,8.23-3.09-3.34,6-8.23,6-8.23s5.65-3.42,7.82-1.35c5.26,5-7.82,1.35-7.82,1.35s3.57,7.75,6.47,10.65" style="fill: none; stroke: rgb(255, 255, 255); stroke-linecap: round; stroke-linejoin: round; transform-origin: 339.213px 232.802px 0px;" id="eln4roxb9vlf" class="animable"></path><path d="M319.17,392.28a.25.25,0,0,1-.12,0c-3.89-1-3.65-5.62-3-19.26.39-7.76.93-18.4,1-33,.26-81.14-3.37-107.13-3.41-107.38a.5.5,0,0,1,1-.15c0,.26,3.68,26.29,3.42,107.54-.05,14.66-.59,25.31-1,33.08-.66,13-.88,17.43,2.21,18.25a.5.5,0,0,1,.36.61A.5.5,0,0,1,319.17,392.28Z" style="fill: rgb(255, 255, 255); transform-origin: 316.64px 312.173px 0px;" id="elfg9jajp7g3" class="animable"></path><g id="elxypg6t9wcz"><path d="M360,304.51c-4.43-16.69-9.4-32.3-14.61-43.11a19.92,19.92,0,0,0,8-11.63S362.38,282.64,360,304.51Z" style="opacity: 0.2; isolation: isolate; transform-origin: 352.896px 277.14px 0px;" class="animable"></path></g><polygon points="315.95 390.39 315.95 394.61 328.42 395.65 329.32 392.01 315.95 390.39" style="fill: rgb(64, 123, 255); transform-origin: 322.635px 393.02px 0px;" id="eloww6p43p9x" class="animable"></polygon><path d="M292.17,129.55l-12.61,4.35s-1.31-2.18-8.23,4.55-7.32,8.75-3.56,9.72,6.13,1.83,8.11,1.2,8.06-7.16,7.79-7.76a4.78,4.78,0,0,1,0-2l11.19-3.9Z" style="fill: rgb(228, 137, 123); transform-origin: 280.133px 139.568px 0px;" id="el8zzdevkcfru" class="animable"></path><path d="M327.14,176.94,320.92,174l-11.38-5.34c1.7-17,.41-24.06-6-26.33a53.9,53.9,0,0,0-15.69-2.88L284.49,131s17-4.63,28.54,0c8.74,3.49,13.62,17.16,14.83,29.88h0A52.23,52.23,0,0,1,327.14,176.94Z" style="fill: rgb(64, 123, 255); transform-origin: 306.332px 152.941px 0px;" id="eln7d4ihaoj1" class="animable"></path><g id="ell44ijlqkcx"><path d="M327.14,176.94,320.92,174c3.23-3.72,5.54-9.16,6.94-13.17A52.23,52.23,0,0,1,327.14,176.94Z" style="opacity: 0.2; isolation: isolate; transform-origin: 324.549px 168.885px 0px;" class="animable"></path></g><path d="M357.71,209.8s-16.28,12.13-44.43,29.59c0,0-3.63-6.56-8.6-14.75-3.72-6.13-8.19-13.17-12.44-19a73.07,73.07,0,0,0-8.1-9.75s22.39-12.19,25.4-27.17C309.54,168.68,331.38,170.47,357.71,209.8Z" style="fill: rgb(64, 123, 255); transform-origin: 320.925px 204.055px 0px;" id="el90sgq6rdgep" class="animable"></path><path d="M308.53,183.94c-2.44,3.43-8.64,8.22-14.66,8.29a8.58,8.58,0,0,0-1-5.5c-2.3-4.55-7.59-8.89-11.21-11.38l16.57-4.44c.26.57.85,2.9,1.29,4.07a3.32,3.32,0,0,0,.25.59,8.55,8.55,0,0,0,2.81,3c2,1.17,4-.08,6.95-2.56C311.88,176.54,309.69,182.3,308.53,183.94Z" style="fill: rgb(228, 137, 123); transform-origin: 296.117px 181.57px 0px;" id="elx137au0mder" class="animable"></path><g id="elhfurzhni5c5"><path d="M299.49,175a13,13,0,0,1-6.65,11.75c-2.3-4.55-7.59-8.89-11.21-11.38l16.57-4.44C298.46,171.48,299.05,173.81,299.49,175Z" style="opacity: 0.2; isolation: isolate; transform-origin: 290.563px 178.84px 0px;" class="animable"></path></g><path d="M277.88,156.89a6.47,6.47,0,0,0-4.3,8.12c1,3.1,2.75,6.45,5.92,7.92,6.64,3.08,2.66-17.33,2.66-17.33Z" style="fill: rgb(38, 50, 56); transform-origin: 278.315px 164.423px 0px;" id="elpazdpxbrqg" class="animable"></path><g id="elmmzz9va6cxd"><path d="M277.88,156.89a6.47,6.47,0,0,0-4.3,8.12c1,3.1,2.75,6.45,5.92,7.92,6.64,3.08,2.66-17.33,2.66-17.33Z" style="fill: rgb(255, 255, 255); opacity: 0.5; transform-origin: 278.315px 164.423px 0px;" class="animable"></path></g><path d="M298.1,178.35a10.15,10.15,0,0,1-10.68,6.09,11.43,11.43,0,0,1-8.06-4.87c-4.17-6.15-7.37-17.69-1.14-23.47,4.41-4.15,12.92-5.86,17.07-1.43,1.19,1.25.5,4.69,1,6.35C298.68,168.69,300.45,173.08,298.1,178.35Z" style="fill: rgb(228, 137, 123); transform-origin: 286.968px 168.296px 0px;" id="elddhrjhrqksc" class="animable"></path><path d="M285.68,167.43c.27.59.1,1.23-.31,1.38s-.91-.23-1.14-.83-.09-1.23.3-1.38S285.44,166.82,285.68,167.43Z" style="fill: rgb(38, 50, 56); transform-origin: 284.965px 167.705px 0px;" id="elfayiwzg1b6t" class="animable"></path><path d="M278.76,170.05a1,1,0,0,1-.3,1.38c-.4.15-.91-.23-1.15-.84s-.09-1.23.31-1.38S278.54,169.47,278.76,170.05Z" style="fill: rgb(38, 50, 56); transform-origin: 278.057px 170.321px 0px;" id="elg3duot3gdgi" class="animable"></path><path d="M281.08,169.52a23.51,23.51,0,0,1-.95,6.34,3.79,3.79,0,0,0,3.15-.57Z" style="fill: rgb(222, 87, 83); transform-origin: 281.705px 172.752px 0px;" id="el2wguxe1lkhg" class="animable"></path><path d="M275.08,168.06a.41.41,0,0,0,.38-.14,3.07,3.07,0,0,1,2.46-1.28.39.39,0,0,0,.41-.35.38.38,0,0,0-.35-.41h0a3.79,3.79,0,0,0-3.12,1.57.37.37,0,0,0,.06.53h0A.61.61,0,0,0,275.08,168.06Z" style="fill: rgb(38, 50, 56); transform-origin: 276.553px 166.973px 0px;" id="elk51cwih2wrh" class="animable"></path><path d="M286,164.15a.35.35,0,0,0,.17-.15.38.38,0,0,0-.22-.49h0a3.78,3.78,0,0,0-3.48.39.38.38,0,0,0-.08.53h0a.4.4,0,0,0,.54.08h0a3.12,3.12,0,0,1,2.77-.27A.39.39,0,0,0,286,164.15Z" style="fill: rgb(38, 50, 56); transform-origin: 284.256px 163.917px 0px;" id="elmf0laky9ptr" class="animable"></path><path d="M292.43,152.72c-2.46-.21-3.81,3.08-2.8,5.34a5.2,5.2,0,0,1,.57,1.92c-.17,3.19,2.87,7.06,5.61,8.11,0,0-.33-1.25.8-1.3s2.91,6.44,1.88,10.14c0,0,2.16-3.75,1.71-11a31.56,31.56,0,0,0-1.3-8.51C298.06,154.86,294.42,152.89,292.43,152.72Z" style="fill: rgb(38, 50, 56); transform-origin: 294.777px 164.82px 0px;" id="elli0db57q20a" class="animable"></path><g id="elhzgubu7sc54"><path d="M292.43,152.72c-2.46-.21-3.81,3.08-2.8,5.34a5.2,5.2,0,0,1,.57,1.92c-.17,3.19,2.87,7.06,5.61,8.11,0,0-.33-1.25.8-1.3s2.91,6.44,1.88,10.14c0,0,2.16-3.75,1.71-11a31.56,31.56,0,0,0-1.3-8.51C298.06,154.86,294.42,152.89,292.43,152.72Z" style="fill: rgb(255, 255, 255); opacity: 0.5; transform-origin: 294.777px 164.82px 0px;" class="animable"></path></g><path d="M301.9,165.94a7.63,7.63,0,0,1-2.73,5.16c-2.08,1.7-4.19.1-4.51-2.42-.27-2.24.44-5.89,3-6.59S302.1,163.46,301.9,165.94Z" style="fill: rgb(228, 137, 123); transform-origin: 298.26px 166.878px 0px;" id="elb1af73a1xio" class="animable"></path><path d="M293.12,165.21s.25,3.73-1.79,6.25-5.13.95-8.7,4.88a5.87,5.87,0,0,0-3,.85c-1.25.87-3-2.12-3.64-4.52,0,0-.43,16.25,11.64,13.1s12.28-9,7-18.88Z" style="fill: rgb(38, 50, 56); transform-origin: 286.956px 175.693px 0px;" id="elewds4q4hqxq" class="animable"></path><g id="elgjnnd2nq5za"><path d="M293.12,165.21s.25,3.73-1.79,6.25-5.13.95-8.7,4.88a5.87,5.87,0,0,0-3,.85c-1.25.87-3-2.12-3.64-4.52,0,0-.43,16.25,11.64,13.1s12.28-9,7-18.88Z" style="fill: rgb(255, 255, 255); opacity: 0.5; transform-origin: 286.956px 175.693px 0px;" class="animable"></path></g><path d="M288.17,174.82a6.06,6.06,0,0,1-2.35,3.85" style="fill: none; stroke: rgb(38, 50, 56); stroke-linecap: round; stroke-linejoin: round; stroke-width: 0.5px; transform-origin: 286.995px 176.745px 0px;" id="elgpqyuttjtv" class="animable"></path><path d="M284.11,168.85a2.54,2.54,0,0,0,2.88,1" style="fill: none; stroke: rgb(222, 87, 83); stroke-linecap: round; stroke-linejoin: round; stroke-width: 0.5px; transform-origin: 285.55px 169.41px 0px;" id="elmux1qvmrx2c" class="animable"></path><path d="M279.4,170.9s-.46,1.93-1.92,1.85" style="fill: none; stroke: rgb(222, 87, 83); stroke-linecap: round; stroke-linejoin: round; stroke-width: 0.5px; transform-origin: 278.44px 171.826px 0px;" id="elhng13p3gnrm" class="animable"></path><path d="M276,163s3-3.43,8.94-2.51" style="fill: none; stroke: rgb(222, 87, 83); stroke-linecap: round; stroke-linejoin: round; stroke-width: 0.5px; transform-origin: 280.47px 161.667px 0px;" id="eljdy7iblccbe" class="animable"></path><path d="M276.55,160.32a10,10,0,0,1,7.7-2.15" style="fill: none; stroke: rgb(222, 87, 83); stroke-linecap: round; stroke-linejoin: round; stroke-width: 0.5px; transform-origin: 280.4px 159.197px 0px;" id="elrvicwlvh36s" class="animable"></path><g id="elu6jr94hh3bh"><path d="M304.68,224.64c-3.72-6.13-8.19-13.17-12.44-19l1.07-1.56S306.24,208.38,304.68,224.64Z" style="opacity: 0.2; isolation: isolate; transform-origin: 298.525px 214.36px 0px;" class="animable"></path></g><path d="M301.91,240.85l8.44,2.38s.43-.79,3.17-1.19,1.55,4.42,1.74,9.73-1,7.36-3.36,6.83-3.27-8-3.27-8l-9.42-1.36Z" style="fill: rgb(228, 137, 123); transform-origin: 307.284px 249.765px 0px;" id="elbx0adcyy7al" class="animable"></path><path d="M284.14,195.84c-7.32,7-18.63,28.51-11,40.64s30.63,14.14,30.63,14.14l2.89-9.86s-18-5.93-19.67-10.82,9.11-18.81,9.11-18.81,2.41-6.21-.39-11.61S284.14,195.84,284.14,195.84Z" style="fill: rgb(64, 123, 255); transform-origin: 288.631px 223.1px 0px;" id="eldkk0ofu80zn" class="animable"></path><g id="elnv1qnqnqco"><path d="M317.74,191.83l2.92-1.87-.26-2.16a.22.22,0,0,1,.12-.24.24.24,0,0,1,.27,0l3.49,2.51L323.4,187a.25.25,0,0,1,.41-.26l1.69,1.56v-1.6a.22.22,0,0,1,.1-.2l2.6-2a4.11,4.11,0,0,0-2.54-2.46c-2.67-1-4.32,1.53-4.31,3.92-2.32-.56-5.12.48-4.79,3.3A4.12,4.12,0,0,0,317.74,191.83Z" style="fill: rgb(255, 255, 255); opacity: 0.6; isolation: isolate; transform-origin: 322.367px 186.823px 0px;" class="animable"></path></g><g id="elzy40mef087"><path d="M326,186.85v2.05a.25.25,0,0,1-.15.23.25.25,0,0,1-.27,0l-1.45-1.33.83,2.89a.24.24,0,0,1-.1.27.26.26,0,0,1-.29,0l-3.61-2.6.21,1.74a.25.25,0,0,1-.11.24l-2.94,1.88c2.21,1.76,6.18,1.56,8.25,1.3l.81-.1.28-.76c.66-1.77,1.61-5,.91-7.54Z" style="fill: rgb(255, 255, 255); opacity: 0.6; isolation: isolate; transform-origin: 323.368px 189.405px 0px;" class="animable"></path></g></g></g><g id="freepik--character-1--inject-2" style="transform-origin: 184.734px 284.607px 0px;" class="animable"><path d="M152.56,152.79,143.9,152s-2.84-2-11.77.78c-.8.25-.21,2.77,1.87,6.79.17.35,2.62.22,5.06-.06,4.67-.54,4.81-1.05,4.84-2h7.21Z" style="fill: rgb(228, 137, 123); transform-origin: 142.174px 155.543px 0px;" id="elid7yrdp0a1p" class="animable"></path><polygon points="167.53 408.09 161.21 406.73 162.06 397.72 162.85 389.45 170.61 389.84 168.98 399.5 167.53 408.09" style="fill: rgb(228, 137, 123); transform-origin: 165.91px 398.77px 0px;" id="elfkaue0cthvv" class="animable"></polygon><path d="M159.72,407c0-.71,8.76-.16,8.76-.16s5.38,5.48,10.61,6.71,2.31,4.36-3.54,4.36H161.1C157,417.9,159.55,414.37,159.72,407Z" style="fill: rgb(38, 50, 56); transform-origin: 170.297px 412.273px 0px;" id="elqzufwi0lxn" class="animable"></path><g id="elf995amfkvgt"><polygon points="168.94 399.69 162.03 397.89 162.84 389.54 170.6 389.88 168.94 399.69" style="opacity: 0.2; isolation: isolate; transform-origin: 166.315px 394.615px 0px;" class="animable"></polygon></g><polygon points="226.56 407.4 220.1 407.4 219.04 398.41 218.08 390.16 225.75 388.91 226.18 398.7 226.56 407.4" style="fill: rgb(228, 137, 123); transform-origin: 222.32px 398.155px 0px;" id="elavxhjdofw57" class="animable"></polygon><path d="M218.72,407c0-.71,8.76-.16,8.76-.16s5.38,5.48,10.61,6.71,2.31,4.36-3.54,4.36H220.1C216,417.9,218.55,414.37,218.72,407Z" style="fill: rgb(38, 50, 56); transform-origin: 229.297px 412.273px 0px;" id="el7ydoe2r7d7o" class="animable"></path><g id="el7t7v9f73duy"><polygon points="226.18 398.9 219.04 398.59 218.08 390.25 225.75 388.96 226.18 398.9" style="opacity: 0.2; isolation: isolate; transform-origin: 222.13px 393.93px 0px;" class="animable"></polygon></g><path d="M173.08,409.07a10.93,10.93,0,0,1-3.62-1.11.16.16,0,0,1-.08-.06h0l0,0a.28.28,0,0,1,0-.18c0-.09.77-2.13,1.95-2.62a1.34,1.34,0,0,1,1.14,0c.39.19.59.43.57.73,0,.46-.65.93-1.36,1.3a3.55,3.55,0,0,1,2,.22.94.94,0,0,1,.47.59.84.84,0,0,1-.21.93A1.24,1.24,0,0,1,173.08,409.07Zm-2.82-1.25c1.29.54,2.89,1,3.3.69,0,0,.15-.12.06-.47a.48.48,0,0,0-.25-.3C172.74,407.38,171.24,407.6,170.26,407.82Zm1.56-2.41a.91.91,0,0,0-.35.07,3.83,3.83,0,0,0-1.5,1.88c1.3-.49,2.55-1.17,2.57-1.56,0-.12-.19-.24-.31-.29A.88.88,0,0,0,171.82,405.41Z" style="fill: rgb(64, 123, 255); transform-origin: 171.788px 407.027px 0px;" id="el0m87fnrswnk" class="animable"></path><path d="M232.08,409.07a10.93,10.93,0,0,1-3.62-1.11.16.16,0,0,1-.08-.06h0l0,0a.28.28,0,0,1,0-.18c0-.09.77-2.13,1.95-2.62a1.34,1.34,0,0,1,1.14,0c.39.19.59.43.57.73,0,.46-.65.93-1.36,1.3a3.55,3.55,0,0,1,2,.22.94.94,0,0,1,.47.59.84.84,0,0,1-.21.93A1.24,1.24,0,0,1,232.08,409.07Zm-2.82-1.25c1.29.54,2.89,1,3.3.69,0,0,.15-.12.06-.47a.48.48,0,0,0-.25-.3C231.74,407.38,230.24,407.6,229.26,407.82Zm1.56-2.41a.91.91,0,0,0-.35.07,3.83,3.83,0,0,0-1.5,1.88c1.3-.49,2.55-1.17,2.57-1.56,0-.12-.19-.24-.31-.29A.88.88,0,0,0,230.82,405.41Z" style="fill: rgb(64, 123, 255); transform-origin: 230.788px 407.027px 0px;" id="elsoqxlpofq5s" class="animable"></path><path d="M192.49,226.34S228.33,256.83,228.33,391l-10.57,2s-14.5-71.25-26.31-96.31c0,0-7.75,55.49-19.2,97l-11-2s2.2-64.74,1.55-96.41c-.77-37.79-.53-52.61-.53-52.61Z" style="fill: rgb(64, 123, 255); transform-origin: 194.79px 310.015px 0px;" id="el758jj147z88" class="animable"></path><g id="eld5b41xna90d"><path d="M228.33,391l-10.57,2s-6.4-31.47-14.17-59.93c-3.91-14.37-8.18-28-12.14-36.38,0,0-7.75,55.49-19.2,97L163,392.07l-1-.18-.78-.14s2.2-64.74,1.55-96.41c-.77-37.79-.53-52.61-.53-52.61l1.29-.8,1-.65,27.93-14.94S228.33,256.83,228.33,391Z" style="fill: rgb(255, 255, 255); opacity: 0.6; isolation: isolate; transform-origin: 194.775px 310.015px 0px;" class="animable"></path></g><g id="eldt8bp9smxx7"><path d="M203.59,333.09c-3.91-14.37-8.18-28-12.14-36.38,0,0,1.39-12.66,1.79-25.84C193.24,270.87,209.61,300.27,203.59,333.09Z" style="opacity: 0.2; isolation: isolate; transform-origin: 198.185px 301.98px 0px;" class="animable"></path></g><path d="M179.81,247.51s1.84-7.07,1.19-11.64c0,0-3,8.89-5,6.8-2.55-2.77,5-6.8,5-6.8s4.67-2.83,6.46-1.12c4.35,4.16-6.46,1.12-6.46,1.12s2.95,6.4,5.35,8.8" style="fill: none; stroke: rgb(38, 50, 56); stroke-linecap: round; stroke-linejoin: round; transform-origin: 181.983px 240.855px 0px;" id="elzobcfx0miid" class="animable"></path><path d="M164.41,285.9c.15,17.21.14,69.23-1.43,106.17l-1-.18c1.56-36.87,1.57-88.79,1.42-106-.18-20.93-.36-36.81.11-44l1-.65C164.11,248,164.22,264.27,164.41,285.9Z" style="fill: rgb(64, 123, 255); transform-origin: 163.245px 316.655px 0px;" id="el6jfmy67n4th" class="animable"></path><path d="M178.15,185.33a102.89,102.89,0,0,1-2.81,12.12l-3.85-2.89-8.16-6.13s4.91-17.24,2.8-21.93-17.53-8.76-17.53-8.76l.23-6.17S167,150.22,175.51,160C180.28,165.49,179.64,176.62,178.15,185.33Z" style="fill: rgb(38, 50, 56); transform-origin: 163.92px 174.478px 0px;" id="elkm45mko55wm" class="animable"></path><g id="elfnzg38k1hlj"><path d="M178.15,185.33a102.89,102.89,0,0,1-2.81,12.12l-3.85-2.89-8.16-6.13s4.91-17.24,2.8-21.93-17.53-8.76-17.53-8.76l.23-6.17S167,150.22,175.51,160C180.28,165.49,179.64,176.62,178.15,185.33Z" style="fill: rgb(255, 255, 255); opacity: 0.2; isolation: isolate; transform-origin: 163.92px 174.478px 0px;" class="animable"></path></g><g id="elgdlnfkf5ume"><path d="M178.15,185.33a102.89,102.89,0,0,1-2.81,12.12l-3.85-2.89A37.24,37.24,0,0,0,178.15,185.33Z" style="opacity: 0.2; isolation: isolate; transform-origin: 174.82px 191.39px 0px;" class="animable"></path></g><path d="M192.49,226.34s-16,13.67-30.26,16.39a39.33,39.33,0,0,0-7.15-8.15,64.72,64.72,0,0,0-7.49-5.8c-.64-.41-1.35-.93-2.11-1.53-3.72-2.94-8.31-8-8.3-13.23,0-.5,19.31-11.08,26.15-25.59C163.33,188.43,194.45,200.63,192.49,226.34Z" style="fill: rgb(38, 50, 56); transform-origin: 164.879px 215.58px 0px;" id="elhz7wi3iajda" class="animable"></path><g id="el2oq8kgklb1x"><path d="M192.49,226.34s-16,13.67-30.26,16.39a39.33,39.33,0,0,0-7.15-8.15,64.72,64.72,0,0,0-7.49-5.8c-.64-.41-1.35-.93-2.11-1.53-3.72-2.94-8.31-8-8.3-13.23,0-.5,19.31-11.08,26.15-25.59C163.33,188.43,194.45,200.63,192.49,226.34Z" style="fill: rgb(255, 255, 255); opacity: 0.3; isolation: isolate; transform-origin: 164.879px 215.58px 0px;" class="animable"></path></g><path d="M153.22,200.12s2.93-4,5.6-5,12.27,6.52,15.83,13.74,4.15,11.58,4.15,11.58-1.68,2.86-3.76,1.78-4.25,2.37-4.25,2.37S166.11,200.22,153.22,200.12Z" style="fill: rgb(64, 123, 255); transform-origin: 166.01px 209.81px 0px;" id="eld4dyss58mb8" class="animable"></path><path d="M159,206.15c-8.57,4.28-12.66,2.94-12.66,2.94.57-3.34-1.35-7.37-3-10.14a33.88,33.88,0,0,0-2.3-3.31l10.45-2.81a23.5,23.5,0,0,0,1.59,3.66c2.46,4.43,4.86,3.61,5.36,3.38l.1-.05C161.68,201.4,159,206.15,159,206.15Z" style="fill: rgb(228, 137, 123); transform-origin: 150.553px 201.059px 0px;" id="elf7bcf5dttb" class="animable"></path><g id="elo273qczki9k"><path d="M158.34,199.87c-1.43,2-3.85,4.15-7.36,3.42-2.7-.57-5.47-2.42-7.74-4.34a33.88,33.88,0,0,0-2.3-3.31l10.45-2.81a23.5,23.5,0,0,0,1.59,3.66C155.44,200.92,157.84,200.1,158.34,199.87Z" style="opacity: 0.2; isolation: isolate; transform-origin: 149.64px 198.133px 0px;" class="animable"></path></g><path d="M145.48,203.44s5.72,3.6,9.84,1.49c5.42-2.77,2.21-9.35,2.21-9.35s3.95,1.35,5.85,8.45-6.45,13.44-14.3,10.31-5.68-5.05-5.68-5.05S143.46,203.44,145.48,203.44Z" style="fill: rgb(64, 123, 255); transform-origin: 153.389px 205.37px 0px;" id="elcz9uwv791to" class="animable"></path><g id="elmeot5ap5ygo"><path d="M145.48,203.44s5.72,3.6,9.84,1.49c5.42-2.77,2.21-9.35,2.21-9.35s3.95,1.35,5.85,8.45-6.45,13.44-14.3,10.31-5.68-5.05-5.68-5.05S143.46,203.44,145.48,203.44Z" style="fill: rgb(255, 255, 255); opacity: 0.2; isolation: isolate; transform-origin: 153.389px 205.37px 0px;" class="animable"></path></g><path d="M140.8,168.4l-6.11,4.26a8.1,8.1,0,0,1-2.29-.74c-5.83-2.86-4.69-11.8,2.29-11.6,5.14.14,6.15,3.63,6.25,6A9.41,9.41,0,0,1,140.8,168.4Z" style="fill: rgb(38, 50, 56); transform-origin: 134.802px 166.488px 0px;" id="eludlqln6awrb" class="animable"></path><g id="eladvtqymr96c"><path d="M140.94,166.29a11.3,11.3,0,0,0-5.49.68,4.41,4.41,0,0,0-3,4.95c-5.83-2.86-4.69-11.8,2.29-11.6C139.83,160.46,140.84,164,140.94,166.29Z" style="fill: rgb(255, 255, 255); opacity: 0.5; transform-origin: 134.823px 166.118px 0px;" class="animable"></path></g><path d="M138.23,167.7c-12.81,5.74-9.91,29,7.12,28.37C157.82,195.63,162,182.85,158,174,154.68,166.71,146.69,163.92,138.23,167.7Z" style="fill: rgb(38, 50, 56); transform-origin: 144.875px 181.049px 0px;" id="eloztzlaaxc29" class="animable"></path><g id="elzwps439m9yg"><path d="M138.23,167.7c-12.81,5.74-9.91,29,7.12,28.37C157.82,195.63,162,182.85,158,174,154.68,166.71,146.69,163.92,138.23,167.7Z" style="fill: rgb(255, 255, 255); opacity: 0.5; transform-origin: 144.875px 181.049px 0px;" class="animable"></path></g><path d="M147.52,172.71c7.93-.57,10.79,3.49,12,11.62,1.46,10.16-.28,17.58-10.35,16.11C135.45,198.45,134.35,173.66,147.52,172.71Z" style="fill: rgb(228, 137, 123); transform-origin: 149.103px 186.642px 0px;" id="elwrwnm6a335t" class="animable"></path><path d="M154.32,184.26a16.78,16.78,0,0,0,2.55,3.12,2.2,2.2,0,0,1-2,1.05Z" style="fill: rgb(222, 87, 83); transform-origin: 155.595px 186.347px 0px;" id="elhfh4fqkxlig" class="animable"></path><path d="M149,178.49a4.14,4.14,0,0,0-3.35,1.44" style="fill: none; stroke: rgb(38, 50, 56); stroke-linecap: round; stroke-linejoin: round; stroke-width: 0.707962px; transform-origin: 147.325px 179.207px 0px;" id="el0bkx4vre2t4n" class="animable"></path><path d="M154.69,177.74a3.72,3.72,0,0,1,3.21.42" style="fill: none; stroke: rgb(38, 50, 56); stroke-linecap: round; stroke-linejoin: round; stroke-width: 0.707962px; transform-origin: 156.295px 177.856px 0px;" id="elc2lw4sat82h" class="animable"></path><path d="M139.82,186.7s3.24-6.78,2.31-11.77c0,0,15.26-7.55,17.18,8.34,0,0,.52-14.27-13.14-13.61s-12.16,20.61-4.69,26C141.48,195.7,137.82,190.94,139.82,186.7Z" style="fill: rgb(38, 50, 56); transform-origin: 147.584px 182.649px 0px;" id="elb4w0h9jwb9" class="animable"></path><path d="M155.32,191a21,21,0,0,0-.93,2.83,4.57,4.57,0,0,1-.52-.05c-2.37-.22-3.4-1.1-3.82-2a2.93,2.93,0,0,1-.24-1.43,3.1,3.1,0,0,1,.14-.82,11.18,11.18,0,0,0,4.56,1.4C155,191,155.32,191,155.32,191Z" style="fill: rgb(38, 50, 56); transform-origin: 152.56px 191.68px 0px;" id="el8q3sd38wsj6" class="animable"></path><path d="M153.87,193.79c-2.37-.22-3.4-1.1-3.82-2a7.82,7.82,0,0,1,2.59.77A3,3,0,0,1,153.87,193.79Z" style="fill: rgb(222, 87, 83); transform-origin: 151.96px 192.79px 0px;" id="elhtgaa8hl9u" class="animable"></path><g id="el4jqgpcs465o"><path d="M139.82,186.7s3.24-6.78,2.31-11.77c0,0,15.26-7.55,17.18,8.34,0,0,.52-14.27-13.14-13.61s-12.16,20.61-4.69,26C141.48,195.7,137.82,190.94,139.82,186.7Z" style="fill: rgb(255, 255, 255); opacity: 0.5; transform-origin: 147.584px 182.649px 0px;" class="animable"></path></g><path d="M141.23,188.28a3.48,3.48,0,0,0-4-2.91c-2.44.44-3.25,5.57,3,6.35C141.1,191.83,141.54,190.94,141.23,188.28Z" style="fill: rgb(228, 137, 123); transform-origin: 138.374px 188.527px 0px;" id="elcvg43187op5" class="animable"></path><path d="M151,188.43s-2.25,1.32-2.34,3.34" style="fill: none; stroke: rgb(222, 87, 83); stroke-linecap: round; stroke-linejoin: round; stroke-width: 0.5px; transform-origin: 149.83px 190.1px 0px;" id="ely0yoel7k2r" class="animable"></path><path d="M156.87,188.52a6,6,0,0,1,.63,3.16" style="fill: none; stroke: rgb(222, 87, 83); stroke-linecap: round; stroke-linejoin: round; stroke-width: 0.5px; transform-origin: 157.193px 190.1px 0px;" id="elclq7lgcv30b" class="animable"></path><path d="M149.43,184.31s-.09,2-1.84,1.64" style="fill: none; stroke: rgb(222, 87, 83); stroke-linecap: round; stroke-linejoin: round; stroke-width: 0.5px; transform-origin: 148.51px 185.152px 0px;" id="el2t6cwwv7o2b" class="animable"></path><path d="M155.91,183.57s.6,1.72,2,1.06" style="fill: none; stroke: rgb(222, 87, 83); stroke-linecap: round; stroke-linejoin: round; stroke-width: 0.5px; transform-origin: 156.91px 184.175px 0px;" id="elkosdxk02yjh" class="animable"></path><path d="M149.42,184c.06.65-.24,1.21-.67,1.25s-.84-.45-.9-1.1.24-1.21.67-1.25S149.36,183.31,149.42,184Z" style="fill: rgb(38, 50, 56); transform-origin: 148.635px 184.075px 0px;" id="elm9sqmvxpuwl" class="animable"></path><path d="M148.35,182.9l1.36-.68S149.12,183.47,148.35,182.9Z" style="fill: rgb(38, 50, 56); transform-origin: 149.03px 182.634px 0px;" id="el8wnrk7b01zw" class="animable"></path><path d="M157.49,183.05c.07.65-.24,1.21-.67,1.25s-.83-.45-.9-1.1.24-1.21.68-1.25S157.43,182.4,157.49,183.05Z" style="fill: rgb(38, 50, 56); transform-origin: 156.705px 183.125px 0px;" id="elhyfiopbp6l" class="animable"></path><path d="M156.42,182l1.36-.69S157.19,182.57,156.42,182Z" style="fill: rgb(38, 50, 56); transform-origin: 157.1px 181.729px 0px;" id="el1pr9vip5zqi" class="animable"></path><path d="M146.23,176.58s5.92-1.58,9.09-.79" style="fill: none; stroke: rgb(222, 87, 83); stroke-linecap: round; stroke-linejoin: round; stroke-width: 0.5px; transform-origin: 150.775px 176.074px 0px;" id="elozrzf8aw7i" class="animable"></path><path d="M145.77,174.34a14,14,0,0,1,7.45,0" style="fill: none; stroke: rgb(222, 87, 83); stroke-linecap: round; stroke-linejoin: round; stroke-width: 0.5px; transform-origin: 149.495px 174.088px 0px;" id="elmehomsgldgh" class="animable"></path><g id="elyx0c76gtjn"><path d="M155.08,234.58a64.72,64.72,0,0,0-7.49-5.8c-.64-.41-1.35-.93-2.11-1.53l3.6-4.15S154.61,228,155.08,234.58Z" style="opacity: 0.2; isolation: isolate; transform-origin: 150.28px 228.84px 0px;" class="animable"></path></g><path d="M156.87,255.05l6.78,1.78s3.75-.14,3.75,2.8-2.38,12-5.41,11.24-6.89-2.69-5.94-4,3.88-5,3.88-5l-4.61-1.56Z" style="fill: rgb(228, 137, 123); transform-origin: 161.36px 262.983px 0px;" id="eljfagzyy7oe" class="animable"></path><path d="M137.18,214c-5.13,5.29-10.93,33.77-4.86,38.52s26,9.6,26,9.6l1.59-7.09s-16.7-6.73-19-9.9,9.54-21,9.54-21a16.5,16.5,0,0,0-5.65-8.62C140.21,211.9,137.18,214,137.18,214Z" style="fill: rgb(38, 50, 56); transform-origin: 144.816px 237.756px 0px;" id="eljj50mna9rsf" class="animable"></path><g id="elvpgmddxkomq"><path d="M137.18,214c-5.13,5.29-10.93,33.77-4.86,38.52s26,9.6,26,9.6l1.59-7.09s-16.7-6.73-19-9.9,9.54-21,9.54-21a16.5,16.5,0,0,0-5.65-8.62C140.21,211.9,137.18,214,137.18,214Z" style="fill: rgb(255, 255, 255); opacity: 0.2; isolation: isolate; transform-origin: 144.816px 237.756px 0px;" class="animable"></path></g></g><g id="freepik--Bottles--inject-2" style="transform-origin: 105.7px 398.16px 0px;" class="animable"><path d="M124.64,390.91v-3.52h-6.16v3.52a3.37,3.37,0,0,1-1.1,2.49h0a3.32,3.32,0,0,0-1.11,2.48v20.24a1.78,1.78,0,0,0,1.78,1.78h7a1.77,1.77,0,0,0,1.78-1.78V395.88a3.35,3.35,0,0,0-1.1-2.48h0A3.37,3.37,0,0,1,124.64,390.91Z" style="fill: rgb(64, 123, 255); transform-origin: 121.55px 402.645px 0px;" id="elfq5xbo9h05q" class="animable"></path><g id="eld4etz7lxcqi"><path d="M124.64,390.91v-3.52h-6.16v3.52a3.37,3.37,0,0,1-1.1,2.49h0a3.32,3.32,0,0,0-1.11,2.48v20.24a1.78,1.78,0,0,0,1.78,1.78h7a1.77,1.77,0,0,0,1.78-1.78V395.88a3.35,3.35,0,0,0-1.1-2.48h0A3.37,3.37,0,0,1,124.64,390.91Z" style="opacity: 0.2; isolation: isolate; transform-origin: 121.55px 402.645px 0px;" class="animable"></path></g><g id="elpdidmeq4fe"><path d="M126.84,400.75v-4.87a3.35,3.35,0,0,0-1.1-2.48,3.37,3.37,0,0,1-1.1-2.49v-3.52h-6.16v3.52a3.37,3.37,0,0,1-1.1,2.49,3.32,3.32,0,0,0-1.11,2.48v4.87Z" style="fill: rgb(255, 255, 255); opacity: 0.5; isolation: isolate; transform-origin: 121.555px 394.07px 0px;" class="animable"></path></g><g id="el15vd5skux29"><path d="M116.27,407.83v8.29a1.78,1.78,0,0,0,1.78,1.78h7a1.77,1.77,0,0,0,1.78-1.78v-8.29Z" style="fill: rgb(255, 255, 255); opacity: 0.6; isolation: isolate; transform-origin: 121.55px 412.865px 0px;" class="animable"></path></g><rect x="117.92" y="386.42" width="7.27" height="2.77" rx="0.53" style="fill: rgb(64, 123, 255); transform-origin: 121.555px 387.805px 0px;" id="elrcju22rrk1b" class="animable"></rect><path d="M134.64,382.91v-3.52h-6.16v3.52a3.37,3.37,0,0,1-1.1,2.49h0a3.32,3.32,0,0,0-1.11,2.48v28.24a1.78,1.78,0,0,0,1.78,1.78h7a1.77,1.77,0,0,0,1.78-1.78V387.88a3.35,3.35,0,0,0-1.1-2.48h0A3.37,3.37,0,0,1,134.64,382.91Z" style="fill: rgb(64, 123, 255); transform-origin: 131.55px 398.645px 0px;" id="elxx9yeoina5a" class="animable"></path><g id="elr6szyaiyorn"><path d="M136.84,396.75v-8.87a3.35,3.35,0,0,0-1.1-2.48,3.37,3.37,0,0,1-1.1-2.49v-3.52h-6.16v3.52a3.37,3.37,0,0,1-1.1,2.49,3.32,3.32,0,0,0-1.11,2.48v8.87Z" style="fill: rgb(255, 255, 255); opacity: 0.6; isolation: isolate; transform-origin: 131.555px 388.07px 0px;" class="animable"></path></g><g id="el523epai5vkh"><path d="M126.27,407.83v8.29a1.78,1.78,0,0,0,1.78,1.78h7a1.77,1.77,0,0,0,1.78-1.78v-8.29Z" style="fill: rgb(255, 255, 255); opacity: 0.6; isolation: isolate; transform-origin: 131.55px 412.865px 0px;" class="animable"></path></g><rect x="127.92" y="378.42" width="7.27" height="2.77" rx="0.53" style="fill: rgb(64, 123, 255); transform-origin: 131.555px 379.805px 0px;" id="elf0ns6apslab" class="animable"></rect><path d="M129.72,411.28a6.37,6.37,0,0,1-6.36,6.37H75.05a.5.5,0,0,1-.49-.5v-1.92a.49.49,0,0,1,.49-.49h7.09a6.37,6.37,0,0,1,5.34-9.83h35.88A6.37,6.37,0,0,1,129.72,411.28Z" style="fill: rgb(64, 123, 255); transform-origin: 102.14px 411.28px 0px;" id="elmeb2g86rrpm" class="animable"></path><g id="elk0n4n80hfor"><path d="M129.72,411.28a6.37,6.37,0,0,1-6.36,6.37H75.05a.5.5,0,0,1-.49-.5v-1.92a.49.49,0,0,1,.49-.49h7.09a6.37,6.37,0,0,1,5.34-9.83h35.88A6.37,6.37,0,0,1,129.72,411.28Z" style="fill: rgb(255, 255, 255); opacity: 0.6; isolation: isolate; transform-origin: 102.14px 411.28px 0px;" class="animable"></path></g><g id="eloiqyrec33vq"><path d="M123.36,404.91H109.48a6.37,6.37,0,0,0-5.34,9.83H97.05a.49.49,0,0,0-.49.49v1.92a.5.5,0,0,0,.49.5h26.31a6.37,6.37,0,0,0,0-12.74Zm.79,10.13H106.6a.51.51,0,0,1-.5-.5.5.5,0,0,1,.5-.5h17.55a2.73,2.73,0,0,0,0-5.45H110a1.1,1.1,0,1,0,0,2.19h12.91a.5.5,0,0,1,0,1H110a2.1,2.1,0,1,1,0-4.19h14.17a3.73,3.73,0,0,1,0,7.45Z" style="fill: rgb(255, 255, 255); opacity: 0.5; isolation: isolate; transform-origin: 113.141px 411.28px 0px;" class="animable"></path></g></g><defs>     <filter id="active" height="200%">         <feMorphology in="SourceAlpha" result="DILATED" operator="dilate" radius="2"></feMorphology>                <feFlood flood-color="#32DFEC" flood-opacity="1" result="PINK"></feFlood>        <feComposite in="PINK" in2="DILATED" operator="in" result="OUTLINE"></feComposite>        <feMerge>            <feMergeNode in="OUTLINE"></feMergeNode>            <feMergeNode in="SourceGraphic"></feMergeNode>        </feMerge>    </filter>    <filter id="hover" height="200%">        <feMorphology in="SourceAlpha" result="DILATED" operator="dilate" radius="2"></feMorphology>                <feFlood flood-color="#ff0000" flood-opacity="0.5" result="PINK"></feFlood>        <feComposite in="PINK" in2="DILATED" operator="in" result="OUTLINE"></feComposite>        <feMerge>            <feMergeNode in="OUTLINE"></feMergeNode>            <feMergeNode in="SourceGraphic"></feMergeNode>        </feMerge>            <feColorMatrix type="matrix" values="0   0   0   0   0                0   1   0   0   0                0   0   0   0   0                0   0   0   1   0 "></feColorMatrix>    </filter></defs></svg>